<mxfile host="Electron" agent="Mozilla/5.0 (Windows NT 10.0; Win64; x64) AppleWebKit/537.36 (KHTML, like Gecko) draw.io/27.0.9 Chrome/134.0.6998.205 Electron/35.4.0 Safari/537.36" version="27.0.9">
  <diagram name="Seite-1" id="yLauqGtEL20_dk4bu9VN">
    <mxGraphModel dx="2328" dy="885" grid="1" gridSize="10" guides="1" tooltips="1" connect="1" arrows="1" fold="1" page="1" pageScale="1" pageWidth="827" pageHeight="1169" math="0" shadow="0">
      <root>
        <mxCell id="0" />
        <mxCell id="1" parent="0" />
        <mxCell id="9ssjWI3ar4-HtduCT_08-102" value="" style="group" vertex="1" connectable="0" parent="1">
          <mxGeometry x="1350" y="217.5" width="810" height="690" as="geometry" />
        </mxCell>
        <mxCell id="9ssjWI3ar4-HtduCT_08-100" value="&lt;b&gt;&lt;font style=&quot;font-size: 16px;&quot;&gt;GUI-Component&lt;/font&gt;&lt;/b&gt;" style="html=1;dropTarget=0;whiteSpace=wrap;align=left;verticalAlign=top;" vertex="1" parent="9ssjWI3ar4-HtduCT_08-102">
          <mxGeometry width="810" height="690" as="geometry" />
        </mxCell>
        <mxCell id="9ssjWI3ar4-HtduCT_08-101" value="" style="shape=module;jettyWidth=8;jettyHeight=4;" vertex="1" parent="9ssjWI3ar4-HtduCT_08-100">
          <mxGeometry x="1" width="20" height="20" relative="1" as="geometry">
            <mxPoint x="-27" y="7" as="offset" />
          </mxGeometry>
        </mxCell>
        <mxCell id="9ssjWI3ar4-HtduCT_08-85" style="edgeStyle=orthogonalEdgeStyle;rounded=0;orthogonalLoop=1;jettySize=auto;html=1;" edge="1" parent="9ssjWI3ar4-HtduCT_08-102" source="9ssjWI3ar4-HtduCT_08-78" target="9ssjWI3ar4-HtduCT_08-82">
          <mxGeometry relative="1" as="geometry" />
        </mxCell>
        <mxCell id="9ssjWI3ar4-HtduCT_08-90" style="edgeStyle=orthogonalEdgeStyle;rounded=0;orthogonalLoop=1;jettySize=auto;html=1;" edge="1" parent="9ssjWI3ar4-HtduCT_08-102" source="9ssjWI3ar4-HtduCT_08-78" target="9ssjWI3ar4-HtduCT_08-89">
          <mxGeometry relative="1" as="geometry" />
        </mxCell>
        <mxCell id="9ssjWI3ar4-HtduCT_08-94" style="edgeStyle=orthogonalEdgeStyle;rounded=0;orthogonalLoop=1;jettySize=auto;html=1;" edge="1" parent="9ssjWI3ar4-HtduCT_08-102" source="9ssjWI3ar4-HtduCT_08-78" target="9ssjWI3ar4-HtduCT_08-93">
          <mxGeometry relative="1" as="geometry" />
        </mxCell>
        <mxCell id="9ssjWI3ar4-HtduCT_08-96" style="edgeStyle=orthogonalEdgeStyle;rounded=0;orthogonalLoop=1;jettySize=auto;html=1;" edge="1" parent="9ssjWI3ar4-HtduCT_08-102" source="9ssjWI3ar4-HtduCT_08-78" target="9ssjWI3ar4-HtduCT_08-95">
          <mxGeometry relative="1" as="geometry" />
        </mxCell>
        <mxCell id="9ssjWI3ar4-HtduCT_08-78" value="DocSysWindow" style="swimlane;fontStyle=1;align=center;verticalAlign=top;childLayout=stackLayout;horizontal=1;startSize=26;horizontalStack=0;resizeParent=1;resizeParentMax=0;resizeLast=0;collapsible=1;marginBottom=0;whiteSpace=wrap;html=1;" vertex="1" parent="9ssjWI3ar4-HtduCT_08-102">
          <mxGeometry x="120" y="60" width="160" height="86" as="geometry" />
        </mxCell>
        <mxCell id="9ssjWI3ar4-HtduCT_08-79" value="+ field: type" style="text;strokeColor=none;fillColor=none;align=left;verticalAlign=top;spacingLeft=4;spacingRight=4;overflow=hidden;rotatable=0;points=[[0,0.5],[1,0.5]];portConstraint=eastwest;whiteSpace=wrap;html=1;" vertex="1" parent="9ssjWI3ar4-HtduCT_08-78">
          <mxGeometry y="26" width="160" height="26" as="geometry" />
        </mxCell>
        <mxCell id="9ssjWI3ar4-HtduCT_08-80" value="" style="line;strokeWidth=1;fillColor=none;align=left;verticalAlign=middle;spacingTop=-1;spacingLeft=3;spacingRight=3;rotatable=0;labelPosition=right;points=[];portConstraint=eastwest;strokeColor=inherit;" vertex="1" parent="9ssjWI3ar4-HtduCT_08-78">
          <mxGeometry y="52" width="160" height="8" as="geometry" />
        </mxCell>
        <mxCell id="9ssjWI3ar4-HtduCT_08-81" value="+ method(type): type" style="text;strokeColor=none;fillColor=none;align=left;verticalAlign=top;spacingLeft=4;spacingRight=4;overflow=hidden;rotatable=0;points=[[0,0.5],[1,0.5]];portConstraint=eastwest;whiteSpace=wrap;html=1;" vertex="1" parent="9ssjWI3ar4-HtduCT_08-78">
          <mxGeometry y="60" width="160" height="26" as="geometry" />
        </mxCell>
        <mxCell id="9ssjWI3ar4-HtduCT_08-86" style="edgeStyle=orthogonalEdgeStyle;rounded=0;orthogonalLoop=1;jettySize=auto;html=1;" edge="1" parent="9ssjWI3ar4-HtduCT_08-102" source="9ssjWI3ar4-HtduCT_08-82" target="9ssjWI3ar4-HtduCT_08-83">
          <mxGeometry relative="1" as="geometry" />
        </mxCell>
        <mxCell id="9ssjWI3ar4-HtduCT_08-82" value="TabView" style="html=1;whiteSpace=wrap;" vertex="1" parent="9ssjWI3ar4-HtduCT_08-102">
          <mxGeometry x="145" y="190" width="110" height="50" as="geometry" />
        </mxCell>
        <mxCell id="9ssjWI3ar4-HtduCT_08-87" style="edgeStyle=orthogonalEdgeStyle;rounded=0;orthogonalLoop=1;jettySize=auto;html=1;" edge="1" parent="9ssjWI3ar4-HtduCT_08-102" source="9ssjWI3ar4-HtduCT_08-83" target="9ssjWI3ar4-HtduCT_08-84">
          <mxGeometry relative="1" as="geometry" />
        </mxCell>
        <mxCell id="9ssjWI3ar4-HtduCT_08-83" value="Tab" style="html=1;whiteSpace=wrap;" vertex="1" parent="9ssjWI3ar4-HtduCT_08-102">
          <mxGeometry x="145" y="270" width="110" height="50" as="geometry" />
        </mxCell>
        <mxCell id="9ssjWI3ar4-HtduCT_08-84" value="Treeview" style="html=1;whiteSpace=wrap;" vertex="1" parent="9ssjWI3ar4-HtduCT_08-102">
          <mxGeometry x="145" y="360" width="110" height="50" as="geometry" />
        </mxCell>
        <mxCell id="9ssjWI3ar4-HtduCT_08-91" style="rounded=0;orthogonalLoop=1;jettySize=auto;html=1;endArrow=none;startFill=0;edgeStyle=orthogonalEdgeStyle;curved=1;fillColor=#0050ef;strokeColor=#001DBC;sketch=1;curveFitting=1;jiggle=2;" edge="1" parent="9ssjWI3ar4-HtduCT_08-102" source="9ssjWI3ar4-HtduCT_08-88" target="9ssjWI3ar4-HtduCT_08-84">
          <mxGeometry relative="1" as="geometry" />
        </mxCell>
        <mxCell id="9ssjWI3ar4-HtduCT_08-88" value="Jede Treeview&amp;nbsp;&lt;div&gt;enthält//repräsentiert&amp;nbsp;&lt;/div&gt;&lt;div&gt;eine SubCat&lt;/div&gt;&lt;div&gt;- jedes Blatt/Leave&lt;/div&gt;&lt;div&gt;ist ein Doc&lt;/div&gt;&lt;div&gt;- Jede Intermediate Node ist eine Sub-Sub Category&lt;/div&gt;" style="shape=note;whiteSpace=wrap;html=1;backgroundOutline=1;fontColor=#000000;darkOpacity=0.05;fillColor=#FFF9B2;strokeColor=none;fillStyle=solid;direction=west;gradientDirection=north;gradientColor=#FFF2A1;shadow=1;size=20;pointerEvents=1;" vertex="1" parent="9ssjWI3ar4-HtduCT_08-102">
          <mxGeometry x="40" y="485" width="140" height="160" as="geometry" />
        </mxCell>
        <mxCell id="9ssjWI3ar4-HtduCT_08-89" value="GraphView" style="html=1;whiteSpace=wrap;" vertex="1" parent="9ssjWI3ar4-HtduCT_08-102">
          <mxGeometry x="350" y="190" width="110" height="50" as="geometry" />
        </mxCell>
        <mxCell id="9ssjWI3ar4-HtduCT_08-93" value="ListView" style="html=1;whiteSpace=wrap;" vertex="1" parent="9ssjWI3ar4-HtduCT_08-102">
          <mxGeometry x="494" y="190" width="110" height="50" as="geometry" />
        </mxCell>
        <mxCell id="9ssjWI3ar4-HtduCT_08-95" value="EnteringMask" style="html=1;whiteSpace=wrap;" vertex="1" parent="9ssjWI3ar4-HtduCT_08-102">
          <mxGeometry x="640" y="190" width="110" height="50" as="geometry" />
        </mxCell>
        <mxCell id="9ssjWI3ar4-HtduCT_08-103" value="" style="group" vertex="1" connectable="0" parent="1">
          <mxGeometry x="-260" y="110" width="1270" height="1050" as="geometry" />
        </mxCell>
        <mxCell id="9ssjWI3ar4-HtduCT_08-76" value="&lt;font style=&quot;font-size: 14px;&quot;&gt;&lt;b&gt;KowledgeStructure&lt;/b&gt;&lt;/font&gt;&lt;div&gt;&lt;font style=&quot;font-size: 14px;&quot;&gt;&lt;b&gt;Component&lt;/b&gt;&lt;/font&gt;&lt;/div&gt;" style="html=1;dropTarget=0;whiteSpace=wrap;align=left;verticalAlign=top;" vertex="1" parent="9ssjWI3ar4-HtduCT_08-103">
          <mxGeometry width="1270" height="1050" as="geometry" />
        </mxCell>
        <mxCell id="9ssjWI3ar4-HtduCT_08-77" value="" style="shape=module;jettyWidth=8;jettyHeight=4;" vertex="1" parent="9ssjWI3ar4-HtduCT_08-76">
          <mxGeometry x="1" width="20" height="20" relative="1" as="geometry">
            <mxPoint x="-27" y="7" as="offset" />
          </mxGeometry>
        </mxCell>
        <mxCell id="9ssjWI3ar4-HtduCT_08-33" style="edgeStyle=orthogonalEdgeStyle;rounded=0;orthogonalLoop=1;jettySize=auto;html=1;" edge="1" parent="9ssjWI3ar4-HtduCT_08-103" source="9ssjWI3ar4-HtduCT_08-1" target="9ssjWI3ar4-HtduCT_08-5">
          <mxGeometry relative="1" as="geometry" />
        </mxCell>
        <mxCell id="9ssjWI3ar4-HtduCT_08-1" value="Documentsystem" style="swimlane;fontStyle=1;align=center;verticalAlign=top;childLayout=stackLayout;horizontal=1;startSize=26;horizontalStack=0;resizeParent=1;resizeParentMax=0;resizeLast=0;collapsible=1;marginBottom=0;whiteSpace=wrap;html=1;" vertex="1" parent="9ssjWI3ar4-HtduCT_08-103">
          <mxGeometry x="610" y="60" width="160" height="86" as="geometry" />
        </mxCell>
        <mxCell id="9ssjWI3ar4-HtduCT_08-2" value="+ Cats : ListOf&amp;lt;Categor&amp;gt;" style="text;strokeColor=none;fillColor=none;align=left;verticalAlign=top;spacingLeft=4;spacingRight=4;overflow=hidden;rotatable=0;points=[[0,0.5],[1,0.5]];portConstraint=eastwest;whiteSpace=wrap;html=1;" vertex="1" parent="9ssjWI3ar4-HtduCT_08-1">
          <mxGeometry y="26" width="160" height="26" as="geometry" />
        </mxCell>
        <mxCell id="9ssjWI3ar4-HtduCT_08-3" value="" style="line;strokeWidth=1;fillColor=none;align=left;verticalAlign=middle;spacingTop=-1;spacingLeft=3;spacingRight=3;rotatable=0;labelPosition=right;points=[];portConstraint=eastwest;strokeColor=inherit;" vertex="1" parent="9ssjWI3ar4-HtduCT_08-1">
          <mxGeometry y="52" width="160" height="8" as="geometry" />
        </mxCell>
        <mxCell id="9ssjWI3ar4-HtduCT_08-4" value="+ method(type): type" style="text;strokeColor=none;fillColor=none;align=left;verticalAlign=top;spacingLeft=4;spacingRight=4;overflow=hidden;rotatable=0;points=[[0,0.5],[1,0.5]];portConstraint=eastwest;whiteSpace=wrap;html=1;" vertex="1" parent="9ssjWI3ar4-HtduCT_08-1">
          <mxGeometry y="60" width="160" height="26" as="geometry" />
        </mxCell>
        <mxCell id="9ssjWI3ar4-HtduCT_08-34" style="edgeStyle=orthogonalEdgeStyle;rounded=0;orthogonalLoop=1;jettySize=auto;html=1;" edge="1" parent="9ssjWI3ar4-HtduCT_08-103" source="9ssjWI3ar4-HtduCT_08-5" target="9ssjWI3ar4-HtduCT_08-13">
          <mxGeometry relative="1" as="geometry" />
        </mxCell>
        <mxCell id="9ssjWI3ar4-HtduCT_08-35" style="edgeStyle=orthogonalEdgeStyle;rounded=0;orthogonalLoop=1;jettySize=auto;html=1;" edge="1" parent="9ssjWI3ar4-HtduCT_08-103" source="9ssjWI3ar4-HtduCT_08-5" target="9ssjWI3ar4-HtduCT_08-9">
          <mxGeometry relative="1" as="geometry" />
        </mxCell>
        <mxCell id="9ssjWI3ar4-HtduCT_08-65" style="edgeStyle=orthogonalEdgeStyle;rounded=0;orthogonalLoop=1;jettySize=auto;html=1;endArrow=block;endFill=0;endSize=16;" edge="1" parent="9ssjWI3ar4-HtduCT_08-103" source="9ssjWI3ar4-HtduCT_08-5" target="9ssjWI3ar4-HtduCT_08-64">
          <mxGeometry relative="1" as="geometry" />
        </mxCell>
        <mxCell id="9ssjWI3ar4-HtduCT_08-5" value="Category" style="swimlane;fontStyle=1;align=center;verticalAlign=top;childLayout=stackLayout;horizontal=1;startSize=26;horizontalStack=0;resizeParent=1;resizeParentMax=0;resizeLast=0;collapsible=1;marginBottom=0;whiteSpace=wrap;html=1;" vertex="1" parent="9ssjWI3ar4-HtduCT_08-103">
          <mxGeometry x="580" y="210" width="220" height="112" as="geometry" />
        </mxCell>
        <mxCell id="9ssjWI3ar4-HtduCT_08-6" value="+ Items: ListOf&amp;lt;KnowledgeItems&amp;gt;" style="text;strokeColor=none;fillColor=none;align=left;verticalAlign=top;spacingLeft=4;spacingRight=4;overflow=hidden;rotatable=0;points=[[0,0.5],[1,0.5]];portConstraint=eastwest;whiteSpace=wrap;html=1;" vertex="1" parent="9ssjWI3ar4-HtduCT_08-5">
          <mxGeometry y="26" width="220" height="26" as="geometry" />
        </mxCell>
        <mxCell id="9ssjWI3ar4-HtduCT_08-36" value="+ SubCats: ListOf&amp;lt;Subcategorys&amp;gt;" style="text;strokeColor=none;fillColor=none;align=left;verticalAlign=top;spacingLeft=4;spacingRight=4;overflow=hidden;rotatable=0;points=[[0,0.5],[1,0.5]];portConstraint=eastwest;whiteSpace=wrap;html=1;" vertex="1" parent="9ssjWI3ar4-HtduCT_08-5">
          <mxGeometry y="52" width="220" height="26" as="geometry" />
        </mxCell>
        <mxCell id="9ssjWI3ar4-HtduCT_08-7" value="" style="line;strokeWidth=1;fillColor=none;align=left;verticalAlign=middle;spacingTop=-1;spacingLeft=3;spacingRight=3;rotatable=0;labelPosition=right;points=[];portConstraint=eastwest;strokeColor=inherit;" vertex="1" parent="9ssjWI3ar4-HtduCT_08-5">
          <mxGeometry y="78" width="220" height="8" as="geometry" />
        </mxCell>
        <mxCell id="9ssjWI3ar4-HtduCT_08-8" value="+ method(type): type" style="text;strokeColor=none;fillColor=none;align=left;verticalAlign=top;spacingLeft=4;spacingRight=4;overflow=hidden;rotatable=0;points=[[0,0.5],[1,0.5]];portConstraint=eastwest;whiteSpace=wrap;html=1;" vertex="1" parent="9ssjWI3ar4-HtduCT_08-5">
          <mxGeometry y="86" width="220" height="26" as="geometry" />
        </mxCell>
        <mxCell id="9ssjWI3ar4-HtduCT_08-38" style="edgeStyle=orthogonalEdgeStyle;rounded=0;orthogonalLoop=1;jettySize=auto;html=1;" edge="1" parent="9ssjWI3ar4-HtduCT_08-103" source="9ssjWI3ar4-HtduCT_08-9" target="9ssjWI3ar4-HtduCT_08-13">
          <mxGeometry relative="1" as="geometry">
            <Array as="points">
              <mxPoint x="470" y="553" />
            </Array>
          </mxGeometry>
        </mxCell>
        <mxCell id="9ssjWI3ar4-HtduCT_08-66" style="edgeStyle=orthogonalEdgeStyle;rounded=0;orthogonalLoop=1;jettySize=auto;html=1;endArrow=block;endFill=0;endSize=16;" edge="1" parent="9ssjWI3ar4-HtduCT_08-103" source="9ssjWI3ar4-HtduCT_08-9" target="9ssjWI3ar4-HtduCT_08-64">
          <mxGeometry relative="1" as="geometry" />
        </mxCell>
        <mxCell id="9ssjWI3ar4-HtduCT_08-9" value="Subcategory" style="swimlane;fontStyle=1;align=center;verticalAlign=top;childLayout=stackLayout;horizontal=1;startSize=26;horizontalStack=0;resizeParent=1;resizeParentMax=0;resizeLast=0;collapsible=1;marginBottom=0;whiteSpace=wrap;html=1;" vertex="1" parent="9ssjWI3ar4-HtduCT_08-103">
          <mxGeometry x="350" y="380" width="240" height="112" as="geometry" />
        </mxCell>
        <mxCell id="9ssjWI3ar4-HtduCT_08-10" value="+ SubCats : ListOf&amp;lt;Subcategory&amp;gt;" style="text;strokeColor=none;fillColor=none;align=left;verticalAlign=top;spacingLeft=4;spacingRight=4;overflow=hidden;rotatable=0;points=[[0,0.5],[1,0.5]];portConstraint=eastwest;whiteSpace=wrap;html=1;" vertex="1" parent="9ssjWI3ar4-HtduCT_08-9">
          <mxGeometry y="26" width="240" height="26" as="geometry" />
        </mxCell>
        <mxCell id="9ssjWI3ar4-HtduCT_08-37" value="+ Items: ListOf&amp;lt;KnowledgeItems&amp;gt;" style="text;strokeColor=none;fillColor=none;align=left;verticalAlign=top;spacingLeft=4;spacingRight=4;overflow=hidden;rotatable=0;points=[[0,0.5],[1,0.5]];portConstraint=eastwest;whiteSpace=wrap;html=1;" vertex="1" parent="9ssjWI3ar4-HtduCT_08-9">
          <mxGeometry y="52" width="240" height="26" as="geometry" />
        </mxCell>
        <mxCell id="9ssjWI3ar4-HtduCT_08-11" value="" style="line;strokeWidth=1;fillColor=none;align=left;verticalAlign=middle;spacingTop=-1;spacingLeft=3;spacingRight=3;rotatable=0;labelPosition=right;points=[];portConstraint=eastwest;strokeColor=inherit;" vertex="1" parent="9ssjWI3ar4-HtduCT_08-9">
          <mxGeometry y="78" width="240" height="8" as="geometry" />
        </mxCell>
        <mxCell id="9ssjWI3ar4-HtduCT_08-12" value="+ method(type): type" style="text;strokeColor=none;fillColor=none;align=left;verticalAlign=top;spacingLeft=4;spacingRight=4;overflow=hidden;rotatable=0;points=[[0,0.5],[1,0.5]];portConstraint=eastwest;whiteSpace=wrap;html=1;" vertex="1" parent="9ssjWI3ar4-HtduCT_08-9">
          <mxGeometry y="86" width="240" height="26" as="geometry" />
        </mxCell>
        <mxCell id="9ssjWI3ar4-HtduCT_08-67" style="edgeStyle=orthogonalEdgeStyle;rounded=0;orthogonalLoop=1;jettySize=auto;html=1;endArrow=block;endFill=0;endSize=16;" edge="1" parent="9ssjWI3ar4-HtduCT_08-103" source="9ssjWI3ar4-HtduCT_08-13" target="9ssjWI3ar4-HtduCT_08-64">
          <mxGeometry relative="1" as="geometry" />
        </mxCell>
        <mxCell id="9ssjWI3ar4-HtduCT_08-13" value="&lt;div&gt;&lt;i style=&quot;font-weight: normal;&quot;&gt;&amp;lt;&amp;lt;abstract&amp;gt;&amp;gt;&lt;/i&gt;&lt;/div&gt;KnowledgeItem" style="swimlane;fontStyle=1;align=center;verticalAlign=top;childLayout=stackLayout;horizontal=1;startSize=40;horizontalStack=0;resizeParent=1;resizeParentMax=0;resizeLast=0;collapsible=1;marginBottom=0;whiteSpace=wrap;html=1;" vertex="1" parent="9ssjWI3ar4-HtduCT_08-103">
          <mxGeometry x="610" y="510" width="160" height="438" as="geometry" />
        </mxCell>
        <mxCell id="9ssjWI3ar4-HtduCT_08-52" value="+ id" style="text;strokeColor=none;fillColor=none;align=left;verticalAlign=top;spacingLeft=4;spacingRight=4;overflow=hidden;rotatable=0;points=[[0,0.5],[1,0.5]];portConstraint=eastwest;whiteSpace=wrap;html=1;" vertex="1" parent="9ssjWI3ar4-HtduCT_08-13">
          <mxGeometry y="40" width="160" height="26" as="geometry" />
        </mxCell>
        <mxCell id="9ssjWI3ar4-HtduCT_08-14" value="+ title: String" style="text;strokeColor=none;fillColor=none;align=left;verticalAlign=top;spacingLeft=4;spacingRight=4;overflow=hidden;rotatable=0;points=[[0,0.5],[1,0.5]];portConstraint=eastwest;whiteSpace=wrap;html=1;" vertex="1" parent="9ssjWI3ar4-HtduCT_08-13">
          <mxGeometry y="66" width="160" height="26" as="geometry" />
        </mxCell>
        <mxCell id="9ssjWI3ar4-HtduCT_08-39" value="+ type : &lt;font style=&quot;color: rgb(255, 0, 0);&quot;&gt;ItemType???&lt;/font&gt;" style="text;strokeColor=none;fillColor=none;align=left;verticalAlign=top;spacingLeft=4;spacingRight=4;overflow=hidden;rotatable=0;points=[[0,0.5],[1,0.5]];portConstraint=eastwest;whiteSpace=wrap;html=1;" vertex="1" parent="9ssjWI3ar4-HtduCT_08-13">
          <mxGeometry y="92" width="160" height="26" as="geometry" />
        </mxCell>
        <mxCell id="9ssjWI3ar4-HtduCT_08-50" value="+ Name: String" style="text;strokeColor=none;fillColor=none;align=left;verticalAlign=top;spacingLeft=4;spacingRight=4;overflow=hidden;rotatable=0;points=[[0,0.5],[1,0.5]];portConstraint=eastwest;whiteSpace=wrap;html=1;" vertex="1" parent="9ssjWI3ar4-HtduCT_08-13">
          <mxGeometry y="118" width="160" height="26" as="geometry" />
        </mxCell>
        <mxCell id="9ssjWI3ar4-HtduCT_08-51" value="+ displayName" style="text;strokeColor=none;fillColor=none;align=left;verticalAlign=top;spacingLeft=4;spacingRight=4;overflow=hidden;rotatable=0;points=[[0,0.5],[1,0.5]];portConstraint=eastwest;whiteSpace=wrap;html=1;" vertex="1" parent="9ssjWI3ar4-HtduCT_08-13">
          <mxGeometry y="144" width="160" height="26" as="geometry" />
        </mxCell>
        <mxCell id="9ssjWI3ar4-HtduCT_08-53" value="+ author" style="text;strokeColor=none;fillColor=none;align=left;verticalAlign=top;spacingLeft=4;spacingRight=4;overflow=hidden;rotatable=0;points=[[0,0.5],[1,0.5]];portConstraint=eastwest;whiteSpace=wrap;html=1;" vertex="1" parent="9ssjWI3ar4-HtduCT_08-13">
          <mxGeometry y="170" width="160" height="26" as="geometry" />
        </mxCell>
        <mxCell id="9ssjWI3ar4-HtduCT_08-57" value="+ editor (who added this)" style="text;strokeColor=none;fillColor=none;align=left;verticalAlign=top;spacingLeft=4;spacingRight=4;overflow=hidden;rotatable=0;points=[[0,0.5],[1,0.5]];portConstraint=eastwest;whiteSpace=wrap;html=1;" vertex="1" parent="9ssjWI3ar4-HtduCT_08-13">
          <mxGeometry y="196" width="160" height="26" as="geometry" />
        </mxCell>
        <mxCell id="9ssjWI3ar4-HtduCT_08-58" value="+ addedDate" style="text;strokeColor=none;fillColor=none;align=left;verticalAlign=top;spacingLeft=4;spacingRight=4;overflow=hidden;rotatable=0;points=[[0,0.5],[1,0.5]];portConstraint=eastwest;whiteSpace=wrap;html=1;" vertex="1" parent="9ssjWI3ar4-HtduCT_08-13">
          <mxGeometry y="222" width="160" height="26" as="geometry" />
        </mxCell>
        <mxCell id="9ssjWI3ar4-HtduCT_08-59" value="+&amp;nbsp; createdDate" style="text;strokeColor=none;fillColor=none;align=left;verticalAlign=top;spacingLeft=4;spacingRight=4;overflow=hidden;rotatable=0;points=[[0,0.5],[1,0.5]];portConstraint=eastwest;whiteSpace=wrap;html=1;" vertex="1" parent="9ssjWI3ar4-HtduCT_08-13">
          <mxGeometry y="248" width="160" height="26" as="geometry" />
        </mxCell>
        <mxCell id="9ssjWI3ar4-HtduCT_08-68" value="+ Path" style="text;strokeColor=none;fillColor=none;align=left;verticalAlign=top;spacingLeft=4;spacingRight=4;overflow=hidden;rotatable=0;points=[[0,0.5],[1,0.5]];portConstraint=eastwest;whiteSpace=wrap;html=1;" vertex="1" parent="9ssjWI3ar4-HtduCT_08-13">
          <mxGeometry y="274" width="160" height="26" as="geometry" />
        </mxCell>
        <mxCell id="9ssjWI3ar4-HtduCT_08-69" value="+ thumbNail" style="text;strokeColor=none;fillColor=none;align=left;verticalAlign=top;spacingLeft=4;spacingRight=4;overflow=hidden;rotatable=0;points=[[0,0.5],[1,0.5]];portConstraint=eastwest;whiteSpace=wrap;html=1;" vertex="1" parent="9ssjWI3ar4-HtduCT_08-13">
          <mxGeometry y="300" width="160" height="26" as="geometry" />
        </mxCell>
        <mxCell id="9ssjWI3ar4-HtduCT_08-70" value="+ comment" style="text;strokeColor=none;fillColor=none;align=left;verticalAlign=top;spacingLeft=4;spacingRight=4;overflow=hidden;rotatable=0;points=[[0,0.5],[1,0.5]];portConstraint=eastwest;whiteSpace=wrap;html=1;" vertex="1" parent="9ssjWI3ar4-HtduCT_08-13">
          <mxGeometry y="326" width="160" height="26" as="geometry" />
        </mxCell>
        <mxCell id="9ssjWI3ar4-HtduCT_08-71" value="+ rating" style="text;strokeColor=none;fillColor=none;align=left;verticalAlign=top;spacingLeft=4;spacingRight=4;overflow=hidden;rotatable=0;points=[[0,0.5],[1,0.5]];portConstraint=eastwest;whiteSpace=wrap;html=1;" vertex="1" parent="9ssjWI3ar4-HtduCT_08-13">
          <mxGeometry y="352" width="160" height="26" as="geometry" />
        </mxCell>
        <mxCell id="9ssjWI3ar4-HtduCT_08-72" value="+ assoziation" style="text;strokeColor=none;fillColor=none;align=left;verticalAlign=top;spacingLeft=4;spacingRight=4;overflow=hidden;rotatable=0;points=[[0,0.5],[1,0.5]];portConstraint=eastwest;whiteSpace=wrap;html=1;" vertex="1" parent="9ssjWI3ar4-HtduCT_08-13">
          <mxGeometry y="378" width="160" height="26" as="geometry" />
        </mxCell>
        <mxCell id="9ssjWI3ar4-HtduCT_08-15" value="" style="line;strokeWidth=1;fillColor=none;align=left;verticalAlign=middle;spacingTop=-1;spacingLeft=3;spacingRight=3;rotatable=0;labelPosition=right;points=[];portConstraint=eastwest;strokeColor=inherit;" vertex="1" parent="9ssjWI3ar4-HtduCT_08-13">
          <mxGeometry y="404" width="160" height="8" as="geometry" />
        </mxCell>
        <mxCell id="9ssjWI3ar4-HtduCT_08-16" value="+ method(type): type" style="text;strokeColor=none;fillColor=none;align=left;verticalAlign=top;spacingLeft=4;spacingRight=4;overflow=hidden;rotatable=0;points=[[0,0.5],[1,0.5]];portConstraint=eastwest;whiteSpace=wrap;html=1;" vertex="1" parent="9ssjWI3ar4-HtduCT_08-13">
          <mxGeometry y="412" width="160" height="26" as="geometry" />
        </mxCell>
        <mxCell id="9ssjWI3ar4-HtduCT_08-17" value="Document" style="swimlane;fontStyle=1;align=center;verticalAlign=top;childLayout=stackLayout;horizontal=1;startSize=26;horizontalStack=0;resizeParent=1;resizeParentMax=0;resizeLast=0;collapsible=1;marginBottom=0;whiteSpace=wrap;html=1;" vertex="1" parent="9ssjWI3ar4-HtduCT_08-103">
          <mxGeometry x="840" y="820" width="160" height="86" as="geometry" />
        </mxCell>
        <mxCell id="9ssjWI3ar4-HtduCT_08-18" value="+ field: type" style="text;strokeColor=none;fillColor=none;align=left;verticalAlign=top;spacingLeft=4;spacingRight=4;overflow=hidden;rotatable=0;points=[[0,0.5],[1,0.5]];portConstraint=eastwest;whiteSpace=wrap;html=1;" vertex="1" parent="9ssjWI3ar4-HtduCT_08-17">
          <mxGeometry y="26" width="160" height="26" as="geometry" />
        </mxCell>
        <mxCell id="9ssjWI3ar4-HtduCT_08-19" value="" style="line;strokeWidth=1;fillColor=none;align=left;verticalAlign=middle;spacingTop=-1;spacingLeft=3;spacingRight=3;rotatable=0;labelPosition=right;points=[];portConstraint=eastwest;strokeColor=inherit;" vertex="1" parent="9ssjWI3ar4-HtduCT_08-17">
          <mxGeometry y="52" width="160" height="8" as="geometry" />
        </mxCell>
        <mxCell id="9ssjWI3ar4-HtduCT_08-20" value="+ method(type): type" style="text;strokeColor=none;fillColor=none;align=left;verticalAlign=top;spacingLeft=4;spacingRight=4;overflow=hidden;rotatable=0;points=[[0,0.5],[1,0.5]];portConstraint=eastwest;whiteSpace=wrap;html=1;" vertex="1" parent="9ssjWI3ar4-HtduCT_08-17">
          <mxGeometry y="60" width="160" height="26" as="geometry" />
        </mxCell>
        <mxCell id="9ssjWI3ar4-HtduCT_08-21" value="Link" style="swimlane;fontStyle=1;align=center;verticalAlign=top;childLayout=stackLayout;horizontal=1;startSize=26;horizontalStack=0;resizeParent=1;resizeParentMax=0;resizeLast=0;collapsible=1;marginBottom=0;whiteSpace=wrap;html=1;" vertex="1" parent="9ssjWI3ar4-HtduCT_08-103">
          <mxGeometry x="1040" y="924" width="160" height="86" as="geometry" />
        </mxCell>
        <mxCell id="9ssjWI3ar4-HtduCT_08-22" value="+ field: type" style="text;strokeColor=none;fillColor=none;align=left;verticalAlign=top;spacingLeft=4;spacingRight=4;overflow=hidden;rotatable=0;points=[[0,0.5],[1,0.5]];portConstraint=eastwest;whiteSpace=wrap;html=1;" vertex="1" parent="9ssjWI3ar4-HtduCT_08-21">
          <mxGeometry y="26" width="160" height="26" as="geometry" />
        </mxCell>
        <mxCell id="9ssjWI3ar4-HtduCT_08-23" value="" style="line;strokeWidth=1;fillColor=none;align=left;verticalAlign=middle;spacingTop=-1;spacingLeft=3;spacingRight=3;rotatable=0;labelPosition=right;points=[];portConstraint=eastwest;strokeColor=inherit;" vertex="1" parent="9ssjWI3ar4-HtduCT_08-21">
          <mxGeometry y="52" width="160" height="8" as="geometry" />
        </mxCell>
        <mxCell id="9ssjWI3ar4-HtduCT_08-24" value="+ method(type): type" style="text;strokeColor=none;fillColor=none;align=left;verticalAlign=top;spacingLeft=4;spacingRight=4;overflow=hidden;rotatable=0;points=[[0,0.5],[1,0.5]];portConstraint=eastwest;whiteSpace=wrap;html=1;" vertex="1" parent="9ssjWI3ar4-HtduCT_08-21">
          <mxGeometry y="60" width="160" height="26" as="geometry" />
        </mxCell>
        <mxCell id="9ssjWI3ar4-HtduCT_08-25" value="Picture" style="swimlane;fontStyle=1;align=center;verticalAlign=top;childLayout=stackLayout;horizontal=1;startSize=26;horizontalStack=0;resizeParent=1;resizeParentMax=0;resizeLast=0;collapsible=1;marginBottom=0;whiteSpace=wrap;html=1;" vertex="1" parent="9ssjWI3ar4-HtduCT_08-103">
          <mxGeometry x="840" y="924" width="160" height="86" as="geometry" />
        </mxCell>
        <mxCell id="9ssjWI3ar4-HtduCT_08-26" value="+ field: type" style="text;strokeColor=none;fillColor=none;align=left;verticalAlign=top;spacingLeft=4;spacingRight=4;overflow=hidden;rotatable=0;points=[[0,0.5],[1,0.5]];portConstraint=eastwest;whiteSpace=wrap;html=1;" vertex="1" parent="9ssjWI3ar4-HtduCT_08-25">
          <mxGeometry y="26" width="160" height="26" as="geometry" />
        </mxCell>
        <mxCell id="9ssjWI3ar4-HtduCT_08-27" value="" style="line;strokeWidth=1;fillColor=none;align=left;verticalAlign=middle;spacingTop=-1;spacingLeft=3;spacingRight=3;rotatable=0;labelPosition=right;points=[];portConstraint=eastwest;strokeColor=inherit;" vertex="1" parent="9ssjWI3ar4-HtduCT_08-25">
          <mxGeometry y="52" width="160" height="8" as="geometry" />
        </mxCell>
        <mxCell id="9ssjWI3ar4-HtduCT_08-28" value="+ method(type): type" style="text;strokeColor=none;fillColor=none;align=left;verticalAlign=top;spacingLeft=4;spacingRight=4;overflow=hidden;rotatable=0;points=[[0,0.5],[1,0.5]];portConstraint=eastwest;whiteSpace=wrap;html=1;" vertex="1" parent="9ssjWI3ar4-HtduCT_08-25">
          <mxGeometry y="60" width="160" height="26" as="geometry" />
        </mxCell>
        <mxCell id="9ssjWI3ar4-HtduCT_08-29" value="Video" style="swimlane;fontStyle=1;align=center;verticalAlign=top;childLayout=stackLayout;horizontal=1;startSize=26;horizontalStack=0;resizeParent=1;resizeParentMax=0;resizeLast=0;collapsible=1;marginBottom=0;whiteSpace=wrap;html=1;" vertex="1" parent="9ssjWI3ar4-HtduCT_08-103">
          <mxGeometry x="1040" y="820" width="160" height="86" as="geometry" />
        </mxCell>
        <mxCell id="9ssjWI3ar4-HtduCT_08-30" value="+ field: type" style="text;strokeColor=none;fillColor=none;align=left;verticalAlign=top;spacingLeft=4;spacingRight=4;overflow=hidden;rotatable=0;points=[[0,0.5],[1,0.5]];portConstraint=eastwest;whiteSpace=wrap;html=1;" vertex="1" parent="9ssjWI3ar4-HtduCT_08-29">
          <mxGeometry y="26" width="160" height="26" as="geometry" />
        </mxCell>
        <mxCell id="9ssjWI3ar4-HtduCT_08-31" value="" style="line;strokeWidth=1;fillColor=none;align=left;verticalAlign=middle;spacingTop=-1;spacingLeft=3;spacingRight=3;rotatable=0;labelPosition=right;points=[];portConstraint=eastwest;strokeColor=inherit;" vertex="1" parent="9ssjWI3ar4-HtduCT_08-29">
          <mxGeometry y="52" width="160" height="8" as="geometry" />
        </mxCell>
        <mxCell id="9ssjWI3ar4-HtduCT_08-32" value="+ method(type): type" style="text;strokeColor=none;fillColor=none;align=left;verticalAlign=top;spacingLeft=4;spacingRight=4;overflow=hidden;rotatable=0;points=[[0,0.5],[1,0.5]];portConstraint=eastwest;whiteSpace=wrap;html=1;" vertex="1" parent="9ssjWI3ar4-HtduCT_08-29">
          <mxGeometry y="60" width="160" height="26" as="geometry" />
        </mxCell>
        <mxCell id="9ssjWI3ar4-HtduCT_08-49" style="edgeStyle=orthogonalEdgeStyle;rounded=0;orthogonalLoop=1;jettySize=auto;html=1;" edge="1" parent="9ssjWI3ar4-HtduCT_08-103" source="9ssjWI3ar4-HtduCT_08-40" target="9ssjWI3ar4-HtduCT_08-13">
          <mxGeometry relative="1" as="geometry" />
        </mxCell>
        <mxCell id="9ssjWI3ar4-HtduCT_08-40" value="&lt;div&gt;&lt;i&gt;&amp;lt;&amp;lt;enum&amp;gt;&amp;gt;&lt;/i&gt;&lt;/div&gt;&lt;b&gt;ItemType&lt;/b&gt;" style="swimlane;fontStyle=0;childLayout=stackLayout;horizontal=1;startSize=30;fillColor=none;horizontalStack=0;resizeParent=1;resizeParentMax=0;resizeLast=0;collapsible=1;marginBottom=0;whiteSpace=wrap;html=1;" vertex="1" parent="9ssjWI3ar4-HtduCT_08-103">
          <mxGeometry x="900" y="410" width="140" height="238" as="geometry" />
        </mxCell>
        <mxCell id="9ssjWI3ar4-HtduCT_08-41" value="PDF" style="text;strokeColor=none;fillColor=none;align=left;verticalAlign=top;spacingLeft=4;spacingRight=4;overflow=hidden;rotatable=0;points=[[0,0.5],[1,0.5]];portConstraint=eastwest;whiteSpace=wrap;html=1;" vertex="1" parent="9ssjWI3ar4-HtduCT_08-40">
          <mxGeometry y="30" width="140" height="26" as="geometry" />
        </mxCell>
        <mxCell id="9ssjWI3ar4-HtduCT_08-42" value="md" style="text;strokeColor=none;fillColor=none;align=left;verticalAlign=top;spacingLeft=4;spacingRight=4;overflow=hidden;rotatable=0;points=[[0,0.5],[1,0.5]];portConstraint=eastwest;whiteSpace=wrap;html=1;" vertex="1" parent="9ssjWI3ar4-HtduCT_08-40">
          <mxGeometry y="56" width="140" height="26" as="geometry" />
        </mxCell>
        <mxCell id="9ssjWI3ar4-HtduCT_08-43" value="spreadSheet" style="text;strokeColor=none;fillColor=none;align=left;verticalAlign=top;spacingLeft=4;spacingRight=4;overflow=hidden;rotatable=0;points=[[0,0.5],[1,0.5]];portConstraint=eastwest;whiteSpace=wrap;html=1;" vertex="1" parent="9ssjWI3ar4-HtduCT_08-40">
          <mxGeometry y="82" width="140" height="26" as="geometry" />
        </mxCell>
        <mxCell id="9ssjWI3ar4-HtduCT_08-44" value="Link" style="text;strokeColor=none;fillColor=none;align=left;verticalAlign=top;spacingLeft=4;spacingRight=4;overflow=hidden;rotatable=0;points=[[0,0.5],[1,0.5]];portConstraint=eastwest;whiteSpace=wrap;html=1;" vertex="1" parent="9ssjWI3ar4-HtduCT_08-40">
          <mxGeometry y="108" width="140" height="26" as="geometry" />
        </mxCell>
        <mxCell id="9ssjWI3ar4-HtduCT_08-45" value="Video//mp4" style="text;strokeColor=none;fillColor=none;align=left;verticalAlign=top;spacingLeft=4;spacingRight=4;overflow=hidden;rotatable=0;points=[[0,0.5],[1,0.5]];portConstraint=eastwest;whiteSpace=wrap;html=1;" vertex="1" parent="9ssjWI3ar4-HtduCT_08-40">
          <mxGeometry y="134" width="140" height="26" as="geometry" />
        </mxCell>
        <mxCell id="9ssjWI3ar4-HtduCT_08-46" value="Image" style="text;strokeColor=none;fillColor=none;align=left;verticalAlign=top;spacingLeft=4;spacingRight=4;overflow=hidden;rotatable=0;points=[[0,0.5],[1,0.5]];portConstraint=eastwest;whiteSpace=wrap;html=1;" vertex="1" parent="9ssjWI3ar4-HtduCT_08-40">
          <mxGeometry y="160" width="140" height="26" as="geometry" />
        </mxCell>
        <mxCell id="9ssjWI3ar4-HtduCT_08-47" value="LaTeX-File" style="text;strokeColor=none;fillColor=none;align=left;verticalAlign=top;spacingLeft=4;spacingRight=4;overflow=hidden;rotatable=0;points=[[0,0.5],[1,0.5]];portConstraint=eastwest;whiteSpace=wrap;html=1;" vertex="1" parent="9ssjWI3ar4-HtduCT_08-40">
          <mxGeometry y="186" width="140" height="26" as="geometry" />
        </mxCell>
        <mxCell id="9ssjWI3ar4-HtduCT_08-48" value="word/odt/docx" style="text;strokeColor=none;fillColor=none;align=left;verticalAlign=top;spacingLeft=4;spacingRight=4;overflow=hidden;rotatable=0;points=[[0,0.5],[1,0.5]];portConstraint=eastwest;whiteSpace=wrap;html=1;" vertex="1" parent="9ssjWI3ar4-HtduCT_08-40">
          <mxGeometry y="212" width="140" height="26" as="geometry" />
        </mxCell>
        <mxCell id="9ssjWI3ar4-HtduCT_08-56" style="edgeStyle=orthogonalEdgeStyle;rounded=0;orthogonalLoop=1;jettySize=auto;html=1;sketch=1;jiggle=2;curveFitting=1;strokeColor=#001DBC;align=center;verticalAlign=middle;fontFamily=Helvetica;fontSize=11;fontColor=default;labelBackgroundColor=default;startFill=0;endArrow=none;curved=1;fillColor=#0050ef;" edge="1" parent="9ssjWI3ar4-HtduCT_08-103" source="9ssjWI3ar4-HtduCT_08-55" target="9ssjWI3ar4-HtduCT_08-40">
          <mxGeometry relative="1" as="geometry" />
        </mxCell>
        <mxCell id="9ssjWI3ar4-HtduCT_08-55" value="File-Extension???" style="shape=note;whiteSpace=wrap;html=1;backgroundOutline=1;fontColor=#000000;darkOpacity=0.05;fillColor=#FFF9B2;strokeColor=none;fillStyle=solid;direction=west;gradientDirection=north;gradientColor=#FFF2A1;shadow=1;size=19;pointerEvents=1;" vertex="1" parent="9ssjWI3ar4-HtduCT_08-103">
          <mxGeometry x="1100" y="400" width="140" height="65" as="geometry" />
        </mxCell>
        <mxCell id="9ssjWI3ar4-HtduCT_08-64" value="&lt;p style=&quot;margin:0px;margin-top:4px;text-align:center;&quot;&gt;&lt;i&gt;&amp;lt;&amp;lt;Interface&amp;gt;&amp;gt;&lt;/i&gt;&lt;br&gt;&lt;b&gt;Keywords&lt;/b&gt;&lt;/p&gt;&lt;hr size=&quot;1&quot; style=&quot;border-style:solid;&quot;&gt;&lt;p style=&quot;margin:0px;margin-left:4px;&quot;&gt;+ KeyWords: ListOf&amp;lt;String&amp;gt;&lt;br&gt;+ field2: Type&lt;/p&gt;&lt;hr size=&quot;1&quot; style=&quot;border-style:solid;&quot;&gt;&lt;p style=&quot;margin:0px;margin-left:4px;&quot;&gt;+ method1(Type): Type&lt;br&gt;+ method2(Type, Type): Type&lt;/p&gt;" style="verticalAlign=top;align=left;overflow=fill;html=1;whiteSpace=wrap;" vertex="1" parent="9ssjWI3ar4-HtduCT_08-103">
          <mxGeometry x="30" y="366" width="190" height="140" as="geometry" />
        </mxCell>
        <mxCell id="9ssjWI3ar4-HtduCT_08-99" style="edgeStyle=orthogonalEdgeStyle;rounded=0;orthogonalLoop=1;jettySize=auto;html=1;sketch=1;jiggle=2;curveFitting=1;strokeColor=#001DBC;align=center;verticalAlign=middle;fontFamily=Helvetica;fontSize=11;fontColor=default;labelBackgroundColor=default;startFill=0;endArrow=none;curved=1;fillColor=#0050ef;" edge="1" parent="9ssjWI3ar4-HtduCT_08-103" source="9ssjWI3ar4-HtduCT_08-98" target="9ssjWI3ar4-HtduCT_08-5">
          <mxGeometry relative="1" as="geometry" />
        </mxCell>
        <mxCell id="9ssjWI3ar4-HtduCT_08-98" value="Icons???" style="shape=note;whiteSpace=wrap;html=1;backgroundOutline=1;fontColor=#000000;darkOpacity=0.05;fillColor=#FFF9B2;strokeColor=none;fillStyle=solid;direction=west;gradientDirection=north;gradientColor=#FFF2A1;shadow=1;size=20;pointerEvents=1;" vertex="1" parent="9ssjWI3ar4-HtduCT_08-103">
          <mxGeometry x="940" y="172.5" width="140" height="65" as="geometry" />
        </mxCell>
        <mxCell id="9ssjWI3ar4-HtduCT_08-111" style="edgeStyle=orthogonalEdgeStyle;rounded=0;orthogonalLoop=1;jettySize=auto;html=1;endArrow=none;startFill=0;" edge="1" parent="1" source="9ssjWI3ar4-HtduCT_08-107" target="9ssjWI3ar4-HtduCT_08-100">
          <mxGeometry relative="1" as="geometry" />
        </mxCell>
        <mxCell id="9ssjWI3ar4-HtduCT_08-107" value="AccesKnowlodge" style="shape=providedRequiredInterface;html=1;verticalLabelPosition=bottom;sketch=0;" vertex="1" parent="1">
          <mxGeometry x="1100" y="540" width="50" height="45" as="geometry" />
        </mxCell>
        <mxCell id="9ssjWI3ar4-HtduCT_08-110" style="edgeStyle=orthogonalEdgeStyle;rounded=0;orthogonalLoop=1;jettySize=auto;html=1;entryX=0.998;entryY=0.431;entryDx=0;entryDy=0;entryPerimeter=0;endArrow=none;startFill=0;" edge="1" parent="1" source="9ssjWI3ar4-HtduCT_08-107" target="9ssjWI3ar4-HtduCT_08-76">
          <mxGeometry relative="1" as="geometry" />
        </mxCell>
        <mxCell id="9ssjWI3ar4-HtduCT_08-115" value="&lt;i style=&quot;font-weight: normal;&quot;&gt;&amp;lt;&amp;lt;interface&amp;gt;&amp;gt;&lt;/i&gt;&lt;div&gt;AccessKnowledge&lt;/div&gt;" style="swimlane;fontStyle=1;align=center;verticalAlign=top;childLayout=stackLayout;horizontal=1;startSize=40;horizontalStack=0;resizeParent=1;resizeParentMax=0;resizeLast=0;collapsible=1;marginBottom=0;whiteSpace=wrap;html=1;" vertex="1" parent="1">
          <mxGeometry x="1045" y="690" width="160" height="256" as="geometry" />
        </mxCell>
        <mxCell id="9ssjWI3ar4-HtduCT_08-116" value="+ field: type" style="text;strokeColor=none;fillColor=none;align=left;verticalAlign=top;spacingLeft=4;spacingRight=4;overflow=hidden;rotatable=0;points=[[0,0.5],[1,0.5]];portConstraint=eastwest;whiteSpace=wrap;html=1;" vertex="1" parent="9ssjWI3ar4-HtduCT_08-115">
          <mxGeometry y="40" width="160" height="26" as="geometry" />
        </mxCell>
        <mxCell id="9ssjWI3ar4-HtduCT_08-117" value="" style="line;strokeWidth=1;fillColor=none;align=left;verticalAlign=middle;spacingTop=-1;spacingLeft=3;spacingRight=3;rotatable=0;labelPosition=right;points=[];portConstraint=eastwest;strokeColor=inherit;" vertex="1" parent="9ssjWI3ar4-HtduCT_08-115">
          <mxGeometry y="66" width="160" height="8" as="geometry" />
        </mxCell>
        <mxCell id="9ssjWI3ar4-HtduCT_08-118" value="+ createCat" style="text;strokeColor=none;fillColor=none;align=left;verticalAlign=top;spacingLeft=4;spacingRight=4;overflow=hidden;rotatable=0;points=[[0,0.5],[1,0.5]];portConstraint=eastwest;whiteSpace=wrap;html=1;" vertex="1" parent="9ssjWI3ar4-HtduCT_08-115">
          <mxGeometry y="74" width="160" height="26" as="geometry" />
        </mxCell>
        <mxCell id="9ssjWI3ar4-HtduCT_08-119" value="+ createSubCat" style="text;strokeColor=none;fillColor=none;align=left;verticalAlign=top;spacingLeft=4;spacingRight=4;overflow=hidden;rotatable=0;points=[[0,0.5],[1,0.5]];portConstraint=eastwest;whiteSpace=wrap;html=1;" vertex="1" parent="9ssjWI3ar4-HtduCT_08-115">
          <mxGeometry y="100" width="160" height="26" as="geometry" />
        </mxCell>
        <mxCell id="9ssjWI3ar4-HtduCT_08-120" value="+ createDoc" style="text;strokeColor=none;fillColor=none;align=left;verticalAlign=top;spacingLeft=4;spacingRight=4;overflow=hidden;rotatable=0;points=[[0,0.5],[1,0.5]];portConstraint=eastwest;whiteSpace=wrap;html=1;" vertex="1" parent="9ssjWI3ar4-HtduCT_08-115">
          <mxGeometry y="126" width="160" height="26" as="geometry" />
        </mxCell>
        <mxCell id="9ssjWI3ar4-HtduCT_08-121" value="+ getAllCats" style="text;strokeColor=none;fillColor=none;align=left;verticalAlign=top;spacingLeft=4;spacingRight=4;overflow=hidden;rotatable=0;points=[[0,0.5],[1,0.5]];portConstraint=eastwest;whiteSpace=wrap;html=1;" vertex="1" parent="9ssjWI3ar4-HtduCT_08-115">
          <mxGeometry y="152" width="160" height="26" as="geometry" />
        </mxCell>
        <mxCell id="9ssjWI3ar4-HtduCT_08-122" value="+ getAllSubCats(Cat)" style="text;strokeColor=none;fillColor=none;align=left;verticalAlign=top;spacingLeft=4;spacingRight=4;overflow=hidden;rotatable=0;points=[[0,0.5],[1,0.5]];portConstraint=eastwest;whiteSpace=wrap;html=1;" vertex="1" parent="9ssjWI3ar4-HtduCT_08-115">
          <mxGeometry y="178" width="160" height="26" as="geometry" />
        </mxCell>
        <mxCell id="9ssjWI3ar4-HtduCT_08-123" value="+ getAllItems(SubCat)" style="text;strokeColor=none;fillColor=none;align=left;verticalAlign=top;spacingLeft=4;spacingRight=4;overflow=hidden;rotatable=0;points=[[0,0.5],[1,0.5]];portConstraint=eastwest;whiteSpace=wrap;html=1;" vertex="1" parent="9ssjWI3ar4-HtduCT_08-115">
          <mxGeometry y="204" width="160" height="26" as="geometry" />
        </mxCell>
        <mxCell id="9ssjWI3ar4-HtduCT_08-148" value="...." style="text;strokeColor=none;fillColor=none;align=left;verticalAlign=top;spacingLeft=4;spacingRight=4;overflow=hidden;rotatable=0;points=[[0,0.5],[1,0.5]];portConstraint=eastwest;whiteSpace=wrap;html=1;" vertex="1" parent="9ssjWI3ar4-HtduCT_08-115">
          <mxGeometry y="230" width="160" height="26" as="geometry" />
        </mxCell>
        <mxCell id="9ssjWI3ar4-HtduCT_08-147" style="edgeStyle=orthogonalEdgeStyle;rounded=0;orthogonalLoop=1;jettySize=auto;html=1;sketch=1;jiggle=2;curveFitting=1;strokeColor=#001DBC;align=center;verticalAlign=middle;fontFamily=Helvetica;fontSize=11;fontColor=default;labelBackgroundColor=default;startFill=0;endArrow=none;curved=1;fillColor=#0050ef;exitX=1;exitY=0.405;exitDx=0;exitDy=0;exitPerimeter=0;" edge="1" parent="1" source="9ssjWI3ar4-HtduCT_08-146" target="9ssjWI3ar4-HtduCT_08-115">
          <mxGeometry relative="1" as="geometry" />
        </mxCell>
        <mxCell id="9ssjWI3ar4-HtduCT_08-146" value="CRUD - Wie Gewohn..." style="shape=note;whiteSpace=wrap;html=1;backgroundOutline=1;fontColor=#000000;darkOpacity=0.05;fillColor=#FFF9B2;strokeColor=none;fillStyle=solid;direction=west;gradientDirection=north;gradientColor=#FFF2A1;shadow=1;size=20;pointerEvents=1;" vertex="1" parent="1">
          <mxGeometry x="1190" y="950" width="140" height="84" as="geometry" />
        </mxCell>
      </root>
    </mxGraphModel>
  </diagram>
</mxfile>
